<svg xmlns="http://www.w3.org/2000/svg" viewBox="0 0 391 206.5"><defs><style>.a97eb4f5-f213-4dd3-8890-770f26650660{fill:#fff;}</style></defs><title>AprilBeograd logo</title><g id="b13ff561-4502-448f-9a11-4850ac5fc907" data-name="Layer 2"><g id="e0c00810-fbf8-43c9-9f28-5d81bf06f7e7" data-name="Layer 1"><path class="a97eb4f5-f213-4dd3-8890-770f26650660" d="M142.7,193.1v.7c0,2.2-1.1,4-3.3,5.5a18.7,18.7,0,0,1-3.2,1.5,12.1,12.1,0,0,1-3.4.5h-3.5a2.7,2.7,0,0,1-1.9-.8,2.3,2.3,0,0,1-.7-1.7V170.9a2.4,2.4,0,0,1,.7-1.8,2.8,2.8,0,0,1,2-.8h8.4a1.9,1.9,0,0,1,1.7.8,2.5,2.5,0,0,1,.8,1.8,2.9,2.9,0,0,1-.8,1.9,2.1,2.1,0,0,1-1.7.8h-5.6a.2.2,0,0,0-.2.2v4l.2.2h1.6a8.1,8.1,0,0,1,4.6,1.2,5.3,5.3,0,0,1,1.6,2.6l2.5,10.4a6.4,6.4,0,0,0,.2.9m-7.8-8.8a3,3,0,0,0-.4-.8l-.6-.2h-1.7l-.2.2v12.2c0,.2.1.2.2.2a6.5,6.5,0,0,0,2.9-.5,2.9,2.9,0,0,0,1.8-2.7v-.4a1.3,1.3,0,0,0-.1-.6Z"/><path class="a97eb4f5-f213-4dd3-8890-770f26650660" d="M162.5,198.6a2.6,2.6,0,0,1-.7,1.9,2.5,2.5,0,0,1-1.8.8h-9.8a2.6,2.6,0,0,1-1.9-.8,2.5,2.5,0,0,1-.8-1.7v-28a2.6,2.6,0,0,1,2.7-2.5H160a2.2,2.2,0,0,1,1.8.8,2.4,2.4,0,0,1,.7,1.8,2.5,2.5,0,0,1-.7,1.9,2.2,2.2,0,0,1-1.8.8h-6.9a.2.2,0,0,0-.2.2v3.6l.2.2h4.8a2.7,2.7,0,0,1,1.9.8,2.5,2.5,0,0,1,.7,1.9,2.8,2.8,0,0,1-.7,1.9,2.5,2.5,0,0,1-1.8.8h-4.9l-.2.2v12.5a.2.2,0,0,0,.2.2H160a2.6,2.6,0,0,1,2.5,2.7"/><path class="a97eb4f5-f213-4dd3-8890-770f26650660" d="M185.3,193.3v.5a7,7,0,0,1-2.8,5.8,10.1,10.1,0,0,1-6.3,2,9.3,9.3,0,0,1-6.1-2,7,7,0,0,1-2.9-5.9c0-.5,0-.8.1-.9l3-20.5a3.6,3.6,0,0,1,1.5-2.8,6.5,6.5,0,0,1,4.4-1.5,7.3,7.3,0,0,1,4.7,1.4,3.9,3.9,0,0,1,1.3,2.9l3.1,20.5M177,174.7c0-.7-.2-1-.8-1s-.7.3-.7,1l-2.8,17.8a3.4,3.4,0,0,0,1.1,2.4,3.7,3.7,0,0,0,2.4,1.1,3.3,3.3,0,0,0,2.5-1,3.4,3.4,0,0,0,1.1-2.5Z"/><path class="a97eb4f5-f213-4dd3-8890-770f26650660" d="M203.8,170.9a2.6,2.6,0,0,1-.8,1.9,1.6,1.6,0,0,1-.8.6,1.3,1.3,0,0,1-.9.2h-5.6a.2.2,0,0,0-.2.2v25a2.5,2.5,0,0,1-.8,1.8,3.2,3.2,0,0,1-1.9.7,2.6,2.6,0,0,1-1.9-.8,2.5,2.5,0,0,1-.8-1.7V170.9a2.5,2.5,0,0,1,.8-1.8,1.9,1.9,0,0,1,1.7-.8h8.7a1.9,1.9,0,0,1,1.7.8,2.5,2.5,0,0,1,.8,1.8"/><path class="a97eb4f5-f213-4dd3-8890-770f26650660" d="M221.8,187.7a3.4,3.4,0,0,1-.6,1.5,2.8,2.8,0,0,1-1,1.2,7.2,7.2,0,0,1-4.6,1.2h-1.5c-.2,0-.2.1-.2.2v6.8a3.1,3.1,0,0,1-.8,1.9,2.6,2.6,0,0,1-1.9.8,2.6,2.6,0,0,1-1.9-.9,2.5,2.5,0,0,1-.8-1.8V171a2.9,2.9,0,0,1,.7-2,2.7,2.7,0,0,1,2-.7h3.4a11.8,11.8,0,0,1,6.6,1.9c2.2,1.5,3.3,3.3,3.3,5.6v.4c0,.1-.1.5-.2,1.1m-5.5-.5a2.9,2.9,0,0,0-1.8-2.6,6.8,6.8,0,0,0-2.9-.6.2.2,0,0,0-.2.2V186c0,.2,0,.2.2.2h1.6a1.1,1.1,0,0,0,1-.9l1.9-7.4a5.2,5.2,0,0,0,.2-1.1"/><path class="a97eb4f5-f213-4dd3-8890-770f26650660" d="M248.2,200.6a2.9,2.9,0,0,1-3.9-.1,2.3,2.3,0,0,1-.8-1.7V183.2c0-.1,0-.2-.1-.2h-4.5l-.2.2v13.6a3.6,3.6,0,0,1-1.1,2.7,5.2,5.2,0,0,1-4.3,1.8h-1.9a2.6,2.6,0,0,1-2.5-2.7,2.8,2.8,0,0,1,.7-1.9,2.9,2.9,0,0,1,1.8-.8h1.8a.2.2,0,0,0,.2-.2V175.6c.1-.3.1-.6.2-.9a1.1,1.1,0,0,1,.1-.5,1.5,1.5,0,0,1,.1-.6h-2.4a2.4,2.4,0,0,1-2.5-2.7,2.4,2.4,0,0,1,.7-1.8,2.2,2.2,0,0,1,1.8-.8h14.8a2.5,2.5,0,0,1,1.9.7,2.2,2.2,0,0,1,.8,1.8v28a2.4,2.4,0,0,1-.7,1.8m-4.7-26.8c0-.1,0-.2-.1-.2h-3.7l-.5.2a1.4,1.4,0,0,0-.5,1.2v2.4l.2.2h4.5c.1,0,.1-.1.1-.2Z"/><path class="a97eb4f5-f213-4dd3-8890-770f26650660" d="M278.5,203.9a2.2,2.2,0,0,1-.8,1.8,2.5,2.5,0,0,1-1.8.8,2.9,2.9,0,0,1-1.9-.8,2.3,2.3,0,0,1-.9-1.8v-2.4c0-.1,0-.2-.1-.2H259.6c-.1,0-.1.1-.1.2v2.4a2.5,2.5,0,0,1-.8,1.8,2.7,2.7,0,0,1-1.9.8,2.9,2.9,0,0,1-1.9-.8,2.5,2.5,0,0,1-.8-1.8v-5.3a2.5,2.5,0,0,1,.7-1.9,2.9,2.9,0,0,1,1.8-.8h1.7a.2.2,0,0,0,.2-.2V173.6h-1.2a2.4,2.4,0,0,1-1.8-.7,2.9,2.9,0,0,1-.7-2,2.3,2.3,0,0,1,.8-1.8,2.1,2.1,0,0,1,1.7-.8h14.1a2.5,2.5,0,0,1,1.9.7,3.3,3.3,0,0,1,.6.8,3,3,0,0,1,.2,1v24.9a.2.2,0,0,0,.2.2H276a2.5,2.5,0,0,1,1.8.8,2.6,2.6,0,0,1,.8,1.9m-9.8-24.8a.2.2,0,0,0-.2-.2h-3.7l-.5.2c-.4.1-.5.5-.5,1.2v20.6a.2.2,0,0,0,.2.2h4.5a.2.2,0,0,0,.2-.2Z"/><path class="a97eb4f5-f213-4dd3-8890-770f26650660" d="M.1,145.4a21.1,21.1,0,0,1,1-3l1-2.5,40-95.8c.3-.6.6-1,.9-1.5a2,2,0,0,1,1.6-.6h3a2.2,2.2,0,0,1,1.7.6l.9,1.3h0L92,144.6a3.5,3.5,0,0,1,.1.7,2.3,2.3,0,0,1,.1.7c0,1.1-.8,1.8-2.3,2H85.8a2.6,2.6,0,0,1-2.5-2l-9.9-24H19c-1.8,4.5-3.6,8.8-5.3,12.9s-3.2,7.9-4.5,11.3a2.7,2.7,0,0,1-2.5,1.8H2.3c-1.5-.1-2.3-.8-2.3-1.8v-.4c0-.2,0-.3.1-.4M23.3,113H69.4c.1,0,.2-.1.2-.3l-23-56.2a.1.1,0,1,0-.3,0L23.1,112.7c-.1.2,0,.3.2.3"/><path class="a97eb4f5-f213-4dd3-8890-770f26650660" d="M109,45.3a3.2,3.2,0,0,1,.9-2.4,3.2,3.2,0,0,1,2.3-.9h33.7a32.7,32.7,0,0,1,12.9,2.6,33,33,0,0,1,10.5,7.1,34,34,0,0,1,7,10.4A31,31,0,0,1,178.9,75a31,31,0,0,1-2.6,12.9,34,34,0,0,1-7,10.4,33,33,0,0,1-10.5,7.1,31.7,31.7,0,0,1-12.7,2.6H117.2a.2.2,0,0,0-.2.2v90.5c0,2.2-1.1,3.3-3.2,3.3h-1.7c-2.1,0-3.1-1.1-3.1-3.3ZM170.6,75a24,24,0,0,0-2-9.7,26,26,0,0,0-5.3-8,22.9,22.9,0,0,0-7.9-5.3,23.9,23.9,0,0,0-9.6-2H117.2a.2.2,0,0,0-.2.2V99.8a.2.2,0,0,0,.2.2h28.6a23.9,23.9,0,0,0,9.6-2,22.9,22.9,0,0,0,7.9-5.3,26,26,0,0,0,5.3-8,24,24,0,0,0,2-9.7"/><path class="a97eb4f5-f213-4dd3-8890-770f26650660" d="M240.3,43a31.1,31.1,0,0,1,12.9,2.7,31.5,31.5,0,0,1,10.4,7.1,32.7,32.7,0,0,1,7,10.5,32.1,32.1,0,0,1,2.5,12.8,31,31,0,0,1-1.4,9.6,31.6,31.6,0,0,1-4,8.5,34.2,34.2,0,0,1-6.2,7,32.5,32.5,0,0,1-7.7,4.9c-.1,0-.1.1-.1.2l17.7,38.8a3,3,0,0,1,.4,1.3,3.1,3.1,0,0,1-.2,1.1,1,1,0,0,1-.7.5l-2,.2h-3.8a1.9,1.9,0,0,1-1.9-1.3l-17.3-38.5h-.3l-2.7.5-3.3.2H205.2a.2.2,0,0,0-.2.2v36a2.7,2.7,0,0,1-2.8,2.8h-2.4a2.7,2.7,0,0,1-2.8-2.8V45.4h0a7.4,7.4,0,0,1,.9-1.8,2.5,2.5,0,0,1,1.6-.5Zm-4.1,58h6.6a19.3,19.3,0,0,0,5.3-1.1,26.5,26.5,0,0,0,12.2-8.9,28,28,0,0,0,3.5-6.9,25.6,25.6,0,0,0,1.2-7.9,24.7,24.7,0,0,0-1.9-9.7,24.8,24.8,0,0,0-23-15.4H205.2a.2.2,0,0,0-.2.2v49.6a.2.2,0,0,0,.2.2Z"/><path class="a97eb4f5-f213-4dd3-8890-770f26650660" d="M292,44.6a2.5,2.5,0,0,1,.7-1.9,2.4,2.4,0,0,1,1.9-.7h3.8a2.3,2.3,0,0,1,1.8.7,2.1,2.1,0,0,1,.8,1.9V201.4a2.3,2.3,0,0,1-2.6,2.6h-3.8a2.3,2.3,0,0,1-2.6-2.6Z"/><path class="a97eb4f5-f213-4dd3-8890-770f26650660" d="M388.4,139a2.5,2.5,0,0,1,1.9.7,2.4,2.4,0,0,1,.7,1.9v3.8a2.4,2.4,0,0,1-2.6,2.6H326.8a2.7,2.7,0,0,1-2.8-2.8V44.6a2.5,2.5,0,0,1,.7-1.9,2.4,2.4,0,0,1,1.9-.7h3.8a2.5,2.5,0,0,1,1.9.6,2.6,2.6,0,0,1,.7,2v94.2l.2.2Z"/><path class="a97eb4f5-f213-4dd3-8890-770f26650660" d="M53.2,18.3h.3c.1,0,.1.1.1.2a.5.5,0,0,1-.2.4A12.3,12.3,0,0,1,50.3,21a10.5,10.5,0,0,1-3.6.6,11.5,11.5,0,0,1-5.5-1.4,10.7,10.7,0,0,1-3.9-4,10,10,0,0,1-1.5-5.4,10,10,0,0,1,1.5-5.4,9.8,9.8,0,0,1,3.9-3.9A10.6,10.6,0,0,1,46.7,0a8.6,8.6,0,0,1,3.6.7,9.7,9.7,0,0,1,3.1,1.8.5.5,0,0,1,.3.4h-.8A9.8,9.8,0,0,0,46.7.9a10.2,10.2,0,0,0-5.1,1.3A10.3,10.3,0,0,0,38,5.8a9.6,9.6,0,0,0,0,10,9.8,9.8,0,0,0,3.7,3.6,9.7,9.7,0,0,0,5,1.4,9.9,9.9,0,0,0,6.2-2.3l.3-.2"/><path class="a97eb4f5-f213-4dd3-8890-770f26650660" d="M65.2.3h.2c.1.1.2.1.2.3l8.5,20.2c0,.1.1.1.1.2s-.1.2-.2.3h-.3a.3.3,0,0,1-.3-.3L71,15.4H59.4L57,21.1a.3.3,0,0,1-.3.3h-.3a.4.4,0,0,1-.1-.3v-.2L64.8.6c.1-.2.2-.3.4-.3m5.4,14.2L65.2,1.6,59.8,14.5Z"/><path class="a97eb4f5-f213-4dd3-8890-770f26650660" d="M78.3.2H92.2a.4.4,0,0,1,.4.4h0a.4.4,0,0,1-.4.4H78.7v9.7H89.6c.3,0,.4.1.4.4h0c0,.3-.1.4-.4.4H78.7V21c0,.2-.1.4-.3.4h-.1a.4.4,0,0,1-.4-.4V.6a.4.4,0,0,1,.4-.4"/><path class="a97eb4f5-f213-4dd3-8890-770f26650660" d="M95.8.2h13.8a.4.4,0,0,1,.4.4h0a.4.4,0,0,1-.1.3H96.2V10h11.3l.2.3h0c0,.2-.1.3-.2.3H96.2v9.7h13.7a.4.4,0,0,1,.4.4h0a.4.4,0,0,1-.1.3H95.8a.4.4,0,0,1-.4-.4V.6a.4.4,0,0,1,.4-.4"/><path class="a97eb4f5-f213-4dd3-8890-770f26650660" d="M129.4,14.4c0-.2.2-.4.4-.6l1.1-.4,1.2-.2,1.4.2,1.3.4,2.6.8,1.9.3a3.3,3.3,0,0,0,2.6-1,6.1,6.1,0,0,0,1.3-2.2l.2-.2h.5a.4.4,0,0,1,.1.3h0c-1,2.5-2.5,3.7-4.7,3.7H138l-2.1-.6h0a6.3,6.3,0,0,1-.9,3.3,7.2,7.2,0,0,1-2.5,2.4,7.3,7.3,0,0,1-7,0,6.7,6.7,0,0,1-2.6-2.4,5.9,5.9,0,0,1-1.1-3.3,7.2,7.2,0,0,1,1.1-4A4.8,4.8,0,0,1,126.2,9a4.2,4.2,0,0,1-2-1.7,5.1,5.1,0,0,1-.6-2.5,4.1,4.1,0,0,1,.7-2.5A4.2,4.2,0,0,1,126.2.7a5.9,5.9,0,0,1,2.7-.5,6.7,6.7,0,0,1,2.8.6,5.2,5.2,0,0,1,1.9,1.7,6,6,0,0,1,.7,2.7v.3h-.6V5.2A4.2,4.2,0,0,0,133,3a5,5,0,0,0-1.7-1.5,4.8,4.8,0,0,0-2.4-.6,5.6,5.6,0,0,0-2.3.5A4.2,4.2,0,0,0,125,2.7a3.7,3.7,0,0,0-.6,2.1,3.9,3.9,0,0,0,1.1,2.8A6.1,6.1,0,0,0,129.3,9l.2.2v.4c0,.2-.2.3-.4.3l-.9-.2h-.8a4.8,4.8,0,0,0-2.4.6,3.5,3.5,0,0,0-1.8,1.8,6.7,6.7,0,0,0-.6,3,4.9,4.9,0,0,0,.9,2.8,6.6,6.6,0,0,0,2.3,2.1,5.8,5.8,0,0,0,3.1.8,6.7,6.7,0,0,0,3.1-.7,6.6,6.6,0,0,0,2.2-2.2,4.7,4.7,0,0,0,.9-2.8v-.3l-1.4-.4-1-.3H132l-1,.2a2.6,2.6,0,0,0-.9.5h-.3l-.3-.2h0v-.2"/><path class="a97eb4f5-f213-4dd3-8890-770f26650660" d="M163.5,13.4h-7.6V21a.4.4,0,0,1-.4.4h0a.4.4,0,0,1-.4-.4V.6a.4.4,0,0,1,.4-.4h8a6.3,6.3,0,0,1,3.3.9,6.9,6.9,0,0,1,2.4,2.4,6.3,6.3,0,0,1,.9,3.3,6.6,6.6,0,0,1-1.1,3.6,6,6,0,0,1-2.8,2.4l3.3,8c0,.1.1.1.1.2a.2.2,0,0,1-.2.2c-.1.1-.1.2-.2.2h-.3l-.2-.2-3.3-8a5.8,5.8,0,0,1-1.9.3m-7.6-.9h7.6a5.7,5.7,0,0,0,2.9-.7,5.3,5.3,0,0,0,2.1-2.1,5.7,5.7,0,0,0,.7-2.9,5.9,5.9,0,0,0-.7-2.9,5.3,5.3,0,0,0-2.1-2.1,5.7,5.7,0,0,0-2.9-.7h-7.6Z"/><path class="a97eb4f5-f213-4dd3-8890-770f26650660" d="M174.5.2h13.7a.5.5,0,0,1,.5.4h0c0,.1-.1.2-.1.3H174.9V10h11.3v.3h0a.4.4,0,0,1-.1.3H174.9v9.7h13.6a.5.5,0,0,1,.5.4h0c0,.1-.1.2-.2.3H174.5a.4.4,0,0,1-.4-.4V.6a.4.4,0,0,1,.4-.4"/><path class="a97eb4f5-f213-4dd3-8890-770f26650660" d="M191.1,18a.4.4,0,0,1,.1-.3h.2a.6.6,0,0,1,.5.2,7.4,7.4,0,0,0,2.8,2.2,9.4,9.4,0,0,0,3.9.7,9.8,9.8,0,0,0,3.6-.5,4.5,4.5,0,0,0,2.5-1.7,4.4,4.4,0,0,0,1-3,3.1,3.1,0,0,0-1.1-2.5,5.6,5.6,0,0,0-2.5-1.4,19,19,0,0,0-3.4-.8,14.7,14.7,0,0,1-4-1.2A5,5,0,0,1,192.3,8a4.1,4.1,0,0,1-.8-2.5,5.3,5.3,0,0,1,.9-3A7.3,7.3,0,0,1,195,.6a12.5,12.5,0,0,1,4-.6,11.8,11.8,0,0,1,3.5.5,8.5,8.5,0,0,1,2.9,1.9.4.4,0,0,1,.1.3.4.4,0,0,1-.1.3h-.5l-.3-.2L203,1.6,201.3,1,199,.8a11.3,11.3,0,0,0-3.2.5,5.8,5.8,0,0,0-2.5,1.5,4,4,0,0,0-.9,2.7,3.2,3.2,0,0,0,1.7,3,15.8,15.8,0,0,0,4.8,1.6l3.8,1a7.2,7.2,0,0,1,2.7,1.5,4.2,4.2,0,0,1,1.1,3,5.7,5.7,0,0,1-1,3.4,6.5,6.5,0,0,1-2.8,2,13,13,0,0,1-4.1.7,10.7,10.7,0,0,1-4.1-.8,7.6,7.6,0,0,1-3.2-2.5.4.4,0,0,1-.2-.4"/><path class="a97eb4f5-f213-4dd3-8890-770f26650660" d="M209.8.2h15.1a.4.4,0,0,1,.4.4h0a.4.4,0,0,1-.4.4h-7.1V21a.4.4,0,0,1-.4.4h0a.4.4,0,0,1-.4-.4V1.1h-7.2a.5.5,0,0,1-.5-.4h0a.5.5,0,0,1,.5-.4"/><path class="a97eb4f5-f213-4dd3-8890-770f26650660" d="M233,.3h.2c.1.1.2.1.2.3l8.5,20.2V21a.4.4,0,0,1-.1.3h-.3a.3.3,0,0,1-.3-.3l-2.4-5.7H227.2l-2.4,5.7a.3.3,0,0,1-.3.3h-.3a.4.4,0,0,1-.1-.3v-.2L232.6.6c.1-.2.2-.3.4-.3m5.4,14.2L233,1.6l-5.4,12.9Z"/><path class="a97eb4f5-f213-4dd3-8890-770f26650660" d="M247.3,17a7.8,7.8,0,0,0,2.8,2.9,7.7,7.7,0,0,0,4,1,7.6,7.6,0,0,0,3.9-1,7.8,7.8,0,0,0,2.8-2.9,7.7,7.7,0,0,0,1.1-3.9V.7c0-.2,0-.3.1-.4h.3c.3,0,.4.2.4.5V13.2a8,8,0,0,1-1.2,4.3,8.4,8.4,0,0,1-3.1,3.1,9.2,9.2,0,0,1-4.3,1.1,9.3,9.3,0,0,1-4.4-1.1,9.5,9.5,0,0,1-3.1-3.2,8.2,8.2,0,0,1-1.2-4.3V.7a.5.5,0,0,1,.4-.5h.1c.2,0,.3.2.3.5V13.1a7.7,7.7,0,0,0,1.1,3.9"/><path class="a97eb4f5-f213-4dd3-8890-770f26650660" d="M275.5,13.4h-7.7V21a.4.4,0,0,1-.4.4h0a.4.4,0,0,1-.4-.4V.6a.4.4,0,0,1,.4-.4h8.1a6.2,6.2,0,0,1,3.2.9,5.6,5.6,0,0,1,2.4,2.4,6.3,6.3,0,0,1,.9,3.3,6.4,6.4,0,0,1-3.8,6l3.3,8V21c0,.1,0,.2-.1.2l-.3.2h-.2l-.2-.2-3.4-8a5.7,5.7,0,0,1-1.8.3m-7.7-.9h7.7a5.9,5.9,0,0,0,2.9-.7,5.8,5.8,0,0,0,2-2.1,5.7,5.7,0,0,0,.8-2.9,6,6,0,0,0-.8-2.9,5.8,5.8,0,0,0-2-2.1,5.9,5.9,0,0,0-2.9-.7h-7.7Z"/><path class="a97eb4f5-f213-4dd3-8890-770f26650660" d="M293.7.3h.2c.1.1.2.1.2.3l8.5,20.2V21a.4.4,0,0,1-.1.3h-.3a.3.3,0,0,1-.3-.3l-2.4-5.7H287.9l-2.4,5.7a.3.3,0,0,1-.3.3h-.3a.4.4,0,0,1-.1-.3v-.2L293.3.6c.1-.2.2-.3.4-.3m5.4,14.2L293.7,1.6l-5.4,12.9Z"/><path class="a97eb4f5-f213-4dd3-8890-770f26650660" d="M307.2,20.9c0,.3-.1.5-.4.5h0c-.2,0-.3-.1-.3-.2s-.1-.2-.1-.3V.6c0-.1,0-.2.1-.2s.1-.2.3-.2h0c.2,0,.3.1.5.3l15.6,19.4V.6a.4.4,0,0,1,.4-.4h0a.4.4,0,0,1,.4.4V20.9c0,.3-.1.5-.4.5h-.1l-.4-.3L307.2,1.7Z"/><path class="a97eb4f5-f213-4dd3-8890-770f26650660" d="M327.7.2h15.1a.4.4,0,0,1,.4.4h0a.4.4,0,0,1-.4.4h-7.1V21a.4.4,0,0,1-.4.4h0a.4.4,0,0,1-.4-.4V1.1h-7.2a.5.5,0,0,1-.5-.4h0a.5.5,0,0,1,.5-.4"/></g></g></svg>